<svg width="128" height="128" viewBox="0 0 128 128" fill="none" xmlns="http://www.w3.org/2000/svg">
<rect width="128" height="128" fill="#1E1E1E"/>
<rect width="128" height="128" fill="#F14D4C"/>
<path d="M42.7955 46.6364H57.3182V101.591C57.3182 105.636 56.5227 108.909 54.9318 111.409C53.3409 113.909 51.0568 115.739 48.0795 116.898C45.125 118.057 41.5909 118.636 37.4773 118.636C36.9773 118.636 36.5 118.625 36.0455 118.602C35.5682 118.602 35.0682 118.591 34.5455 118.568V107.216C34.9318 107.239 35.2727 107.25 35.5682 107.25C35.8409 107.273 36.1364 107.284 36.4545 107.284C38.7955 107.284 40.4318 106.784 41.3636 105.784C42.3182 104.807 42.7955 103.33 42.7955 101.352V46.6364ZM50.0227 39.8864C47.8864 39.8864 46.0455 39.1705 44.5 37.7386C42.9545 36.2841 42.1818 34.5455 42.1818 32.5227C42.1818 30.5227 42.9545 28.8068 44.5 27.375C46.0455 25.9205 47.8864 25.1932 50.0227 25.1932C52.2045 25.1932 54.0568 25.9205 55.5795 27.375C57.125 28.8068 57.8977 30.5227 57.8977 32.5227C57.8977 34.5455 57.125 36.2841 55.5795 37.7386C54.0568 39.1705 52.2045 39.8864 50.0227 39.8864ZM77.4403 99.8864C75.1903 99.8864 73.2585 99.0909 71.6449 97.5C70.054 95.8864 69.2585 93.9545 69.2585 91.7045C69.2585 89.4773 70.054 87.5682 71.6449 85.9773C73.2585 84.3864 75.1903 83.5909 77.4403 83.5909C79.6222 83.5909 81.5313 84.3864 83.1676 85.9773C84.804 87.5682 85.6222 89.4773 85.6222 91.7045C85.6222 93.2045 85.2358 94.5795 84.4631 95.8295C83.7131 97.0568 82.7244 98.0455 81.4972 98.7955C80.2699 99.5227 78.9176 99.8864 77.4403 99.8864Z" fill="white"/>
</svg>
